# xmcd
#
# Track frame offsets:
#	150
#	16798
#	47756
#	61783
#	70744
#	88806
#	102083
#	117860
#	130401
#	142241
#	157963
#	175533
#	192070
#	206050
#	221168
#	237672
#	252789
#	273844
#	296762
#	321551
#
# Disc length: 4717 seconds
#
# Revision: 0
# Processed by: cddbd v1.5.2PL0 Copyright (c) Steve Scherf et al.
# Submitted via: EasyCDDAExtractor 12.0.0.1
#
DISCID=2c126b14
DTITLE=Various Artist - 101 Soul Anthems
DYEAR=2011
DGENRE=Soul
TTITLE0=Curtis Mayfield - Move On Up
TTITLE1=The Temptations - Papa Was A Rollin' Stone
TTITLE2=The O'Jays - Backstabbers
TTITLE3=The Delfonics - Ready Or Not Here I Come (Can't Hide From Love)
TTITLE4=Hot Chocolate - You Sexy Thing
TTITLE5=Chairmen Of The Board - (You Got Me) Danglin' On A String
TTITLE6=Billy Ocean - Red Light Spells Danger
TTITLE7=Tami Lynn - I'm Gonna Run Away From You
TTITLE8=Gloria Jones - Tainted Love
TTITLE9=Al Wilson - The Snake
TTITLE10=The Isley Brothers - Harvest For The World
TTITLE11=The Doobie Brothers - What A Fool Believes
TTITLE12=Sly and The Family Stone - Family Affair
TTITLE13=Lou Rawls - Bring It On Home
TTITLE14=Tower Of Power - So Very Hard To Go
TTITLE15=Harold Melvin and The Bluetones - If You Don't Know Me By Now
TTITLE16=Gladys Knight and The Pips - Midnight Train To Georgia
TTITLE17=The Chi-lites - It's Time For Love
TTITLE18=Major Harris - Love Won't Let Me Wait
TTITLE19=Barry White - I'm Gonna Love You Just A Little More Baby
EXTD=
EXTT0=
EXTT1=
EXTT2=
EXTT3=
EXTT4=
EXTT5=
EXTT6=
EXTT7=
EXTT8=
EXTT9=
EXTT10=
EXTT11=
EXTT12=
EXTT13=
EXTT14=
EXTT15=
EXTT16=
EXTT17=
EXTT18=
EXTT19=
PLAYORDER=
